<svg id="Layer_1" data-name="Layer 1" xmlns="http://www.w3.org/2000/svg" viewBox="0 0 512 412"><defs><style>.cls-1{fill:#424242;}</style></defs><title>kariyer</title><path class="cls-1" d="M300.13,122.47A139.77,139.77,0,1,0,439.9,262.24,139.76,139.76,0,0,0,300.13,122.47Zm0,234.28a94.52,94.52,0,1,1,94.52-94.51A94.63,94.63,0,0,1,300.13,356.75Z"/><path class="cls-1" d="M300.13,295.69a33.54,33.54,0,1,1,23.71-9.81,32.41,32.41,0,0,1-23.71,9.81Z"/><path class="cls-1" d="M283,91.88a5.53,5.53,0,0,1-5.52-5.5V15.06A5.53,5.53,0,0,1,283,9.56h34.23a5.52,5.52,0,0,1,5.5,5.5V86.38a5.5,5.5,0,0,1-5.5,5.5Z"/><path class="cls-1" d="M200.13,123.24a5.5,5.5,0,0,1-7.53-2L156.93,59.47A5.51,5.51,0,0,1,159,52l29.65-17.11a5.5,5.5,0,0,1,7.51,2l35.67,61.76a5.52,5.52,0,0,1-2,7.53Z"/><path class="cls-1" d="M144,191.85a5.51,5.51,0,0,1-7.53,2L74.75,158.22a5.55,5.55,0,0,1-2-7.54l17.13-29.62a5.51,5.51,0,0,1,7.49-2l61.78,35.67a5.53,5.53,0,0,1,2,7.53Z"/></svg>